<svg width="74" height="81" viewBox="0 0 74 81" fill="none" xmlns="http://www.w3.org/2000/svg">
<mask id="mask0_0_1" style="mask-type:alpha" maskUnits="userSpaceOnUse" x="0" y="41" width="36" height="40">
<path d="M0.213373 63.6773C5.00154 71.34 12.1598 77.2306 20.6008 80.4544L35.4074 41.6857L0.213373 63.6773Z" fill="#D9D9D9"/>
</mask>
<g mask="url(#mask0_0_1)">
<path d="M34 35.0001H35V8.00006H40V35.0001H41V14.0001H46V35.0001H47V20.0001H52V35.0001H53V17.0001H58V35.0001H59V14.0001H64V35.0001H65V5.00006H70V83.0001H34C13.0132 83.0001 -4.00002 65.9869 -4.00002 45.0001V5.00006H34V35.0001Z" fill="url(#paint0_linear_0_1)"/>
</g>
<path d="M38 30H39V3H44V30H45V9H50V30H51V15H56V30H57V12H62V30H63V9H68V30H69V0C71.7614 0 74 2.23858 74 5V45.7319C74 48.0645 73.0944 50.3059 71.4741 51.9839L51.953 72.1985C48.3727 75.9061 43.4397 78 38.2856 78H38C33.2023 78 28.6133 77.1078 24.3867 75.4854L38.7686 36.8223L4.95801 58.7783C1.80328 53.2393 0 46.8304 0 40C0 34.298 2.21381 28.7906 6.1748 24.689L27.6587 2.44263C29.1662 0.881613 31.2432 0 33.4133 0H38V30Z" fill="url(#paint1_linear_0_1)"/>
<path d="M57 21H17V61H57V21Z" fill="black"/>
<path d="M39 52H22V56H39V52Z" fill="white"/>
<path d="M27.8906 27H30.7656V38.25C30.7604 39.2812 30.5417 40.1693 30.1094 40.9141C29.6771 41.6536 29.0729 42.224 28.2969 42.625C27.526 43.0208 26.6276 43.2187 25.6016 43.2187C24.6641 43.2187 23.8203 43.0521 23.0703 42.7187C22.3255 42.3802 21.7344 41.8802 21.2969 41.2187C20.8594 40.5573 20.6406 39.7344 20.6406 38.75H23.5234C23.5286 39.1823 23.6224 39.5547 23.8047 39.8672C23.9922 40.1797 24.25 40.4193 24.5781 40.5859C24.9063 40.7526 25.2839 40.8359 25.7109 40.8359C26.1745 40.8359 26.5677 40.7396 26.8906 40.5469C27.2135 40.349 27.4583 40.0573 27.625 39.6719C27.7969 39.2865 27.8854 38.8125 27.8906 38.25V27ZM47.6055 32.3984H44.6836C44.6003 31.9193 44.4466 31.4948 44.2227 31.125C43.9987 30.75 43.7201 30.4323 43.3867 30.1719C43.0534 29.9115 42.6732 29.7161 42.2461 29.5859C41.8242 29.4505 41.3685 29.3828 40.8789 29.3828C40.0091 29.3828 39.2383 29.6016 38.5664 30.0391C37.8945 30.4714 37.3685 31.1068 36.9883 31.9453C36.6081 32.7786 36.418 33.7969 36.418 35C36.418 36.224 36.6081 37.2552 36.9883 38.0937C37.3737 38.9271 37.8997 39.5573 38.5664 39.9844C39.2383 40.4062 40.0065 40.6172 40.8711 40.6172C41.3503 40.6172 41.7982 40.5547 42.2148 40.4297C42.6367 40.2995 43.0143 40.1094 43.3477 39.8594C43.6862 39.6094 43.9701 39.3021 44.1992 38.9375C44.4336 38.5729 44.5951 38.1562 44.6836 37.6875L47.6055 37.7031C47.4961 38.4635 47.2591 39.1771 46.8945 39.8438C46.5352 40.5104 46.0638 41.099 45.4805 41.6094C44.8971 42.1146 44.2148 42.5104 43.4336 42.7969C42.6523 43.0781 41.7852 43.2187 40.832 43.2187C39.4258 43.2187 38.1706 42.8932 37.0664 42.2422C35.9622 41.5911 35.0924 40.651 34.457 39.4219C33.8216 38.1927 33.5039 36.7187 33.5039 35C33.5039 33.276 33.8242 31.8021 34.4648 30.5781C35.1055 29.349 35.9779 28.4089 37.082 27.7578C38.1862 27.1068 39.4362 26.7812 40.832 26.7812C41.7227 26.7812 42.5508 26.9062 43.3164 27.1562C44.082 27.4062 44.7643 27.7734 45.3633 28.2578C45.9622 28.737 46.4544 29.3255 46.8398 30.0234C47.2305 30.7161 47.4857 31.5078 47.6055 32.3984Z" fill="white"/>
<defs>
<linearGradient id="paint0_linear_0_1" x1="-4.00002" y1="83.0001" x2="71.8812" y2="17.9933" gradientUnits="userSpaceOnUse">
<stop stop-color="#009AE5"/>
<stop offset="0.454093" stop-color="#FA2E90"/>
<stop offset="0.99" stop-color="#4CD880"/>
</linearGradient>
<linearGradient id="paint1_linear_0_1" x1="-2.75672e-07" y1="78" x2="75.8812" y2="12.9933" gradientUnits="userSpaceOnUse">
<stop stop-color="#009AE5"/>
<stop offset="0.454093" stop-color="#FA2E90"/>
<stop offset="0.99" stop-color="#4CD880"/>
</linearGradient>
</defs>
</svg>
